<mxfile host="app.diagrams.net" modified="2023-04-02T08:04:23.609Z" agent="Mozilla/5.0 (Macintosh; Intel Mac OS X 10_15_7) AppleWebKit/537.36 (KHTML, like Gecko) Chrome/108.0.0.0 Safari/537.36" version="21.1.2" etag="z3fALCDfpOenLsNIy1jp" type="github">
  <diagram name="第 1 页" id="zwq-i_4yCPA9exf1bkVR">
    <mxGraphModel>
      <root>
        <mxCell id="0" />
        <mxCell id="1" parent="0" />
      </root>
    </mxGraphModel>
  </diagram>
</mxfile>
